<svg xmlns="http://www.w3.org/2000/svg" width="375" height="44" fill="none"><path stroke="#000" d="M337.102 17.833c-1.008 0-1.406.077-1.818.297a1.919 1.919 0 0 0-.802.803c-.22.412-.297.81-.297 1.819v4.496c0 1.008.077 1.407.297 1.819.185.347.455.617.802.803.412.22.81.297 1.818.297h15.155c1.007 0 1.406-.077 1.817-.297.347-.186.617-.456.803-.803.22-.412.297-.81.297-1.819v-4.496c0-1.008-.077-1.407-.297-1.819a1.927 1.927 0 0 0-.803-.803c-.411-.22-.81-.297-1.817-.297h-15.155Z" clip-rule="evenodd" opacity=".35"/><path fill="#000" d="M356.673 21v4a2.17 2.17 0 0 0 0-4Z" opacity=".4"/><path fill="#000" d="M337.392 19.333h14.574c.594 0 .809.062 1.026.178.218.117.388.287.504.504.116.218.178.433.178 1.028v3.914c0 .595-.062.81-.178 1.027a1.206 1.206 0 0 1-.504.505c-.217.116-.432.178-1.026.178h-14.574c-.594 0-.809-.062-1.026-.178a1.206 1.206 0 0 1-.504-.505c-.116-.217-.178-.432-.178-1.027v-3.914c0-.595.062-.81.178-1.028.116-.217.286-.387.504-.504.217-.116.432-.178 1.026-.178ZM321.025 19.615c2.224 0 4.362.854 5.974 2.386a.31.31 0 0 0 .435-.003l1.16-1.17a.322.322 0 0 0-.003-.458 10.937 10.937 0 0 0-15.132 0 .323.323 0 0 0-.003.457l1.16 1.17c.12.12.314.122.435.004a8.674 8.674 0 0 1 5.974-2.386Zm0 3.808c1.222 0 2.4.454 3.306 1.273a.312.312 0 0 0 .435-.005l1.158-1.17a.323.323 0 0 0-.005-.461 7.186 7.186 0 0 0-9.786 0 .325.325 0 0 0-.004.46l1.158 1.17c.12.12.313.123.435.006a4.925 4.925 0 0 1 3.303-1.273Zm2.227 2.793a.314.314 0 0 0-.009-.459 3.435 3.435 0 0 0-4.435 0 .317.317 0 0 0-.01.459l2.005 2.022a.313.313 0 0 0 .445 0l2.004-2.022ZM292.373 24.333h1a1 1 0 0 1 .999 1v2a1 1 0 0 1-.999 1h-1a1 1 0 0 1-.999-1v-2a1 1 0 0 1 .999-1Zm4.665-2h.999a1 1 0 0 1 1 1v4a1 1 0 0 1-1 1h-.999a1 1 0 0 1-1-1v-4a1 1 0 0 1 1-1ZM301.702 20h.999a1 1 0 0 1 1 1v6.333a1 1 0 0 1-1 1h-.999a1 1 0 0 1-1-1V21a1 1 0 0 1 1-1Zm4.664-2.333h1a1 1 0 0 1 .999 1v8.666a1 1 0 0 1-.999 1h-1a1 1 0 0 1-.999-1v-8.666a1 1 0 0 1 .999-1ZM32.234 25.865h.139c.781 0 1.416-.11 1.904-.33.489-.22.865-.515 1.128-.886.264-.371.445-.789.542-1.253a7.06 7.06 0 0 0 .147-1.442V20.32c0-.483-.056-.913-.169-1.289a2.79 2.79 0 0 0-.454-.945 2.015 2.015 0 0 0-.652-.578 1.61 1.61 0 0 0-.776-.198c-.313 0-.593.064-.842.19a1.769 1.769 0 0 0-.623.52 2.481 2.481 0 0 0-.38.791 3.535 3.535 0 0 0-.133.99c0 .317.04.624.118.922.078.298.197.567.358.806.162.24.362.43.601.571.244.137.53.205.857.205.303 0 .586-.058.85-.176a2.46 2.46 0 0 0 1.209-1.201c.126-.263.2-.54.219-.827h.644c0 .405-.08.805-.241 1.2-.157.391-.376.748-.66 1.07a3.35 3.35 0 0 1-.996.777c-.38.19-.796.285-1.245.285-.527 0-.984-.102-1.37-.308a2.766 2.766 0 0 1-.951-.82 3.752 3.752 0 0 1-.55-1.142 4.826 4.826 0 0 1-.176-1.29c0-.507.071-.983.213-1.428.141-.444.351-.835.63-1.172a2.871 2.871 0 0 1 1.032-.798c.416-.19.894-.286 1.436-.286.61 0 1.13.122 1.56.367.43.244.779.571 1.047.981.274.41.474.872.601 1.384.127.513.19 1.04.19 1.582v.491c0 .552-.036 1.113-.11 1.685a6.718 6.718 0 0 1-.402 1.626c-.196.517-.481.981-.857 1.391-.376.406-.867.728-1.472.967-.601.235-1.343.352-2.227.352h-.14v-1.15Zm7.178.417c0-.23.07-.422.212-.578.146-.162.356-.242.63-.242.273 0 .48.08.623.242.146.156.22.349.22.578a.805.805 0 0 1-.22.572c-.142.156-.35.234-.623.234s-.483-.078-.63-.235a.82.82 0 0 1-.212-.57Zm.007-6.467c0-.23.07-.422.212-.579.147-.16.357-.241.63-.241.274 0 .481.08.623.241.146.157.22.35.22.579a.804.804 0 0 1-.22.571c-.142.157-.35.235-.623.235s-.483-.078-.63-.235a.82.82 0 0 1-.212-.571Zm10.745 3.596v1.113h-7.706v-.798l4.776-7.39h1.106l-1.187 2.139-3.156 4.936h6.167Zm-1.487-7.075V27h-1.355V16.336h1.355Zm7.17-.059V27h-1.355v-9.03l-2.732.995v-1.223l3.875-1.465h.212Z"/></svg>